<svg width="537" height="415" viewBox="0 0 537 415" fill="none" xmlns="http://www.w3.org/2000/svg">
<path d="M124.153 150.051C124.153 150.051 121.602 149.763 113.827 151.356C113.827 151.356 113.419 148.2 110.42 143.028C110.42 143.028 119.678 134.469 129.545 132.953C129.534 133.056 129.534 133.165 129.534 133.268C129.534 136.867 133.651 140.064 138.736 140.064C143.821 140.064 147.943 136.867 147.943 133.268C147.943 133.165 147.938 133.056 147.932 132.953C155.579 134.129 162.856 139.533 165.743 141.904C160.921 128.524 143.961 116.211 135.464 104.094C125.501 118.309 103.881 132.793 103.881 148.963C103.881 168.191 124.153 166.056 124.153 150.051Z" fill="#5789FF"/>
<path d="M163.651 151.356C155.876 149.763 153.319 150.051 153.319 150.051C153.319 150.051 147.082 173.399 122.716 175.755C126.615 177.348 130.927 178.235 135.464 178.235C152.911 178.235 167.052 165.128 167.052 148.963C167.052 147.339 166.834 145.73 166.431 144.137C163.998 148.649 163.651 151.356 163.651 151.356Z" fill="#5789FF"/>
<path d="M168.31 162.163C166.514 166.097 163.947 169.63 160.675 172.661C157.402 175.693 153.587 178.075 149.342 179.741C144.945 181.463 140.274 182.34 135.464 182.34C130.653 182.34 125.988 181.463 121.585 179.741C117.34 178.075 113.53 175.693 110.258 172.661C106.986 169.63 104.413 166.097 102.617 162.163C100.76 158.085 99.8146 153.759 99.8146 149.298C99.8146 143.735 102.013 137.924 106.538 131.545C110.308 126.224 115.209 121.14 119.941 116.221C124.612 111.374 129.02 106.795 132.001 102.392L135.464 97.277L138.932 102.392C141.908 106.795 146.315 111.374 150.986 116.221C155.724 121.14 160.619 126.224 164.394 131.545C168.914 137.924 171.113 143.735 171.113 149.298C171.113 153.759 170.173 158.085 168.31 162.163ZM167.812 129.467C163.874 123.909 158.873 118.722 154.04 113.7C149.487 108.971 145.191 104.506 142.394 100.381L135.464 90.1459L128.539 100.381C125.742 104.506 121.44 108.971 116.892 113.7C112.059 118.722 107.059 123.909 103.121 129.467C98.1421 136.48 95.7256 142.972 95.7256 149.298C95.7256 154.269 96.7772 159.09 98.8525 163.638C100.855 168.026 103.719 171.96 107.366 175.343C111.013 178.72 115.259 181.375 119.997 183.232C124.897 185.155 130.105 186.13 135.464 186.13C140.828 186.13 146.03 185.155 150.936 183.232C155.668 181.375 159.919 178.72 163.567 175.343C167.214 171.96 170.078 168.026 172.08 163.638C174.15 159.09 175.207 154.269 175.207 149.298C175.207 142.972 172.785 136.48 167.812 129.467Z" fill="#5789FF"/>
<path d="M199.128 148.046C199.128 148.665 199.206 149.17 199.374 149.551C199.536 149.923 199.777 150.222 200.09 150.438C200.403 150.645 200.789 150.789 201.254 150.871C201.729 150.944 202.288 150.975 202.932 150.975C203.961 150.975 204.884 150.882 205.706 150.686C206.523 150.495 207.239 150.284 207.854 150.046C208.481 149.814 209.001 149.603 209.42 149.407C209.851 149.201 210.187 149.098 210.427 149.098C210.724 149.098 210.953 149.19 211.121 149.366C211.3 149.531 211.389 149.778 211.389 150.108C211.389 150.675 211.322 151.088 211.188 151.346C211.065 151.593 210.813 151.779 210.427 151.903C209.007 152.356 207.412 152.697 205.639 152.913C203.877 153.145 201.88 153.264 199.643 153.264C197.987 153.264 196.628 153.192 195.57 153.058C194.524 152.918 193.696 152.681 193.087 152.336C192.488 151.995 192.069 151.526 191.834 150.933C191.61 150.345 191.498 149.582 191.498 148.644V124.286C191.498 123.971 191.459 123.724 191.386 123.543C191.308 123.353 191.196 123.203 191.051 123.09C190.916 122.981 190.749 122.914 190.558 122.883C190.363 122.842 190.156 122.821 189.932 122.821C189.585 122.821 189.16 122.873 188.656 122.966C188.147 123.064 187.61 123.213 187.045 123.42C186.492 123.626 185.932 123.873 185.367 124.162C184.797 124.451 184.293 124.781 183.846 125.152C183.41 125.523 183.052 125.946 182.772 126.41C182.503 126.864 182.369 127.354 182.369 127.875C182.369 128.344 182.425 128.715 182.548 128.988C182.682 129.251 182.828 129.452 182.996 129.586C183.175 129.726 183.354 129.813 183.533 129.855C183.712 129.885 183.835 129.896 183.913 129.896C184.299 129.896 184.618 129.834 184.875 129.71C185.127 129.586 185.351 129.463 185.546 129.339C185.753 129.205 185.949 129.071 186.128 128.947C186.307 128.823 186.508 128.761 186.732 128.761C186.922 128.761 187.124 128.803 187.336 128.885C187.543 128.957 187.739 129.081 187.918 129.256C188.097 129.421 188.243 129.648 188.366 129.937C188.483 130.215 188.545 130.551 188.545 130.948C188.545 131.525 188.422 132.02 188.187 132.433C187.946 132.845 187.633 133.191 187.247 133.464C186.872 133.742 186.441 133.949 185.949 134.083C185.468 134.222 184.987 134.289 184.495 134.289C183.745 134.289 183.074 134.175 182.481 133.938C181.882 133.706 181.373 133.381 180.959 132.969C180.54 132.556 180.221 132.072 179.997 131.505C179.785 130.943 179.684 130.35 179.684 129.731C179.684 128.741 179.874 127.833 180.266 127.008C180.652 126.183 181.183 125.451 181.854 124.801C182.526 124.141 183.314 123.564 184.226 123.069C185.132 122.574 186.117 122.161 187.18 121.831C188.237 121.501 189.339 121.254 190.491 121.089C191.638 120.924 192.785 120.841 193.937 120.841C195.201 120.841 196.186 120.955 196.89 121.171C197.59 121.393 198.104 121.661 198.434 121.976C198.776 122.295 198.977 122.625 199.038 122.966C199.094 123.311 199.128 123.6 199.128 123.832V148.046Z" fill="#5789FF"/>
<path d="M226.356 141.796C226.356 141.441 226.227 141.173 225.976 140.992C225.735 140.801 225.422 140.703 225.036 140.703C224.482 140.703 223.962 140.822 223.47 141.054C222.989 141.276 222.563 141.611 222.194 142.065C221.819 142.508 221.523 143.055 221.299 143.715C221.087 144.364 220.986 145.112 220.986 145.963C220.986 146.788 221.042 147.479 221.165 148.025C221.299 148.561 221.478 148.995 221.702 149.325C221.937 149.644 222.2 149.871 222.485 150.005C222.782 150.129 223.095 150.191 223.425 150.191C223.828 150.191 224.208 150.098 224.566 149.902C224.924 149.711 225.226 149.464 225.483 149.16C225.752 148.86 225.959 148.52 226.11 148.149C226.272 147.778 226.356 147.406 226.356 147.035V141.796ZM222.664 132.412C222.127 132.412 221.635 132.469 221.187 132.577C220.74 132.69 220.348 132.835 220.024 133.01C219.694 133.175 219.431 133.361 219.241 133.567C219.062 133.773 218.972 133.974 218.972 134.165C218.972 134.387 219.09 134.547 219.33 134.64C219.582 134.722 219.85 134.825 220.136 134.949C220.432 135.073 220.701 135.248 220.941 135.465C221.176 135.686 221.299 136.021 221.299 136.475C221.299 136.779 221.232 137.063 221.098 137.321C220.975 137.568 220.796 137.79 220.561 137.981C220.337 138.177 220.074 138.326 219.778 138.435C219.476 138.533 219.162 138.579 218.838 138.579C217.971 138.579 217.272 138.311 216.735 137.775C216.198 137.228 215.929 136.506 215.929 135.609C215.929 134.732 216.175 133.98 216.668 133.361C217.171 132.742 217.82 132.237 218.614 131.835C219.42 131.438 220.32 131.144 221.322 130.948C222.334 130.741 223.347 130.638 224.365 130.638C225.573 130.638 226.72 130.762 227.81 131.01C228.912 131.257 229.891 131.649 230.741 132.185C231.592 132.711 232.263 133.376 232.755 134.186C233.259 135 233.516 135.99 233.516 137.156V149.263C233.516 149.402 233.522 149.546 233.538 149.696C233.55 149.85 233.589 149.995 233.65 150.129C233.723 150.253 233.818 150.366 233.941 150.459C234.059 150.541 234.238 150.583 234.478 150.583C234.758 150.583 235.021 150.49 235.261 150.294C235.496 150.103 235.709 149.902 235.888 149.696L236.469 150.15C236.246 150.454 235.966 150.784 235.642 151.14C235.312 151.5 234.914 151.836 234.456 152.15C233.991 152.454 233.449 152.717 232.822 152.934C232.207 153.15 231.508 153.264 230.719 153.264C229.735 153.264 228.862 152.996 228.101 152.46C227.34 151.923 226.837 151.098 226.602 149.985C226.11 150.593 225.595 151.109 225.058 151.531C224.521 151.944 223.973 152.284 223.425 152.542C222.871 152.79 222.312 152.965 221.747 153.078C221.176 153.202 220.606 153.264 220.024 153.264C219.274 153.264 218.553 153.15 217.853 152.934C217.165 152.717 216.545 152.377 215.996 151.923C215.443 151.459 214.995 150.851 214.654 150.108C214.324 149.366 214.162 148.458 214.162 147.386C214.162 146.081 214.436 145.014 214.989 144.189C215.554 143.354 216.293 142.652 217.205 142.085C218.111 141.523 219.14 141.044 220.292 140.641C221.456 140.244 222.642 139.827 223.85 139.383C224.745 139.053 225.394 138.569 225.797 137.919C226.211 137.259 226.423 136.589 226.423 135.898C226.423 134.841 226.087 133.995 225.416 133.361C224.745 132.732 223.828 132.412 222.664 132.412Z" fill="#5789FF"/>
<path d="M262.048 149.18C262.048 149.304 262.054 149.443 262.071 149.593C262.082 149.747 262.121 149.892 262.183 150.026C262.238 150.165 262.328 150.273 262.451 150.356C262.585 150.438 262.77 150.48 263.01 150.48C263.29 150.48 263.553 150.387 263.794 150.191C264.028 150 264.247 149.809 264.442 149.613L265.002 150.067C264.761 150.371 264.47 150.706 264.129 151.078C263.782 151.439 263.357 151.779 262.854 152.109C262.362 152.429 261.791 152.697 261.153 152.913C260.527 153.145 259.811 153.264 259.005 153.264C258.317 153.264 257.719 153.181 257.215 153.016C256.706 152.851 256.281 152.635 255.94 152.356C255.593 152.068 255.336 151.738 255.157 151.366C254.989 150.985 254.911 150.578 254.911 150.15V149.18C254.133 149.954 253.322 150.634 252.472 151.222C252.097 151.485 251.694 151.738 251.264 151.985C250.844 152.222 250.413 152.434 249.966 152.625C249.518 152.82 249.054 152.965 248.579 153.078C248.097 153.202 247.616 153.264 247.124 153.264C246.196 153.264 245.407 153.109 244.752 152.81C244.092 152.496 243.555 152.088 243.141 151.593C242.739 151.088 242.437 150.521 242.246 149.902C242.067 149.273 241.978 148.639 241.978 148.005V134.722C241.978 134.598 241.967 134.464 241.956 134.31C241.939 134.16 241.9 134.016 241.844 133.876C241.782 133.742 241.687 133.629 241.553 133.546C241.43 133.464 241.262 133.423 241.038 133.423C240.753 133.423 240.49 133.521 240.255 133.711C240.015 133.907 239.796 134.098 239.606 134.289L239.024 133.835C239.259 133.546 239.55 133.227 239.897 132.866C240.255 132.495 240.68 132.144 241.172 131.814C241.665 131.484 242.23 131.211 242.873 130.989C243.527 130.757 244.249 130.638 245.043 130.638C245.715 130.638 246.302 130.721 246.811 130.886C247.331 131.051 247.762 131.278 248.109 131.566C248.45 131.845 248.702 132.175 248.869 132.556C249.048 132.928 249.138 133.33 249.138 133.753V148.087C249.138 148.293 249.166 148.5 249.227 148.706C249.3 148.912 249.406 149.108 249.541 149.283C249.675 149.448 249.837 149.588 250.033 149.696C250.24 149.794 250.486 149.84 250.771 149.84C251.219 149.84 251.666 149.737 252.114 149.531C252.561 149.314 252.97 149.056 253.344 148.768C253.714 148.469 254.038 148.18 254.307 147.901C254.575 147.613 254.776 147.396 254.911 147.241V134.722C254.911 134.598 254.899 134.464 254.888 134.31C254.872 134.16 254.827 134.016 254.754 133.876C254.693 133.742 254.603 133.629 254.486 133.546C254.362 133.464 254.183 133.423 253.949 133.423C253.663 133.423 253.4 133.521 253.165 133.711C252.925 133.907 252.718 134.098 252.539 134.289L251.957 133.835C252.181 133.546 252.461 133.227 252.807 132.866C253.165 132.495 253.591 132.144 254.083 131.814C254.586 131.484 255.162 131.211 255.806 130.989C256.443 130.757 257.159 130.638 257.954 130.638C258.636 130.638 259.235 130.721 259.744 130.886C260.247 131.051 260.672 131.278 261.019 131.566C261.36 131.845 261.612 132.175 261.78 132.556C261.959 132.928 262.048 133.33 262.048 133.753V149.18Z" fill="#5789FF"/>
<path d="M283.949 142.23C283.949 140.43 283.86 138.991 283.681 137.919C283.502 136.836 283.261 136.011 282.965 135.444C282.663 134.882 282.338 134.511 281.98 134.33C281.622 134.155 281.253 134.062 280.884 134.062C280.436 134.062 280.033 134.175 279.675 134.392C279.329 134.614 279.032 134.866 278.78 135.155C278.523 135.444 278.311 135.733 278.132 136.021C277.953 136.3 277.802 136.511 277.684 136.661V150.975C277.684 151.17 277.645 151.397 277.572 151.655C277.511 151.918 277.36 152.171 277.125 152.418C276.884 152.655 276.526 152.851 276.051 153.016C275.586 153.181 274.943 153.264 274.126 153.264C273.304 153.264 272.655 153.171 272.18 152.996C271.699 152.82 271.335 152.604 271.083 152.356C270.843 152.109 270.686 151.861 270.614 151.614C270.552 151.356 270.524 151.14 270.524 150.975V134.413C270.524 134 270.418 133.644 270.211 133.34C269.998 133.041 269.651 132.886 269.159 132.886C268.891 132.886 268.656 132.928 268.466 133.01C268.287 133.093 268.091 133.216 267.884 133.381L267.392 132.845C267.75 132.572 268.141 132.304 268.577 132.041C269.025 131.768 269.5 131.535 270.009 131.34C270.53 131.133 271.083 130.968 271.665 130.845C272.258 130.71 272.885 130.638 273.545 130.638C274.54 130.638 275.318 130.798 275.872 131.113C276.437 131.417 276.845 131.788 277.102 132.226C277.371 132.654 277.533 133.103 277.595 133.567C277.651 134.021 277.684 134.408 277.684 134.722C278.249 133.969 278.898 133.289 279.631 132.68C279.927 132.433 280.257 132.185 280.615 131.938C280.984 131.69 281.376 131.474 281.779 131.278C282.193 131.087 282.629 130.937 283.076 130.824C283.535 130.7 284.016 130.638 284.508 130.638C285.549 130.638 286.477 130.834 287.283 131.216C288.1 131.587 288.788 132.206 289.341 133.072C289.906 133.938 290.337 135.093 290.639 136.537C290.936 137.97 291.087 139.749 291.087 141.879C291.087 143.957 290.885 145.767 290.483 147.303C290.08 148.83 289.548 150.129 288.894 151.201C288.234 152.274 287.496 153.145 286.679 153.821C285.857 154.507 285.029 155.043 284.195 155.43C283.356 155.811 282.551 156.079 281.779 156.234C281.018 156.383 280.352 156.466 279.787 156.481L279.541 155.595C280 155.497 280.425 155.337 280.817 155.12C281.219 154.914 281.583 154.594 281.913 154.171C282.237 153.759 282.523 153.233 282.763 152.604C283.015 151.975 283.233 151.176 283.412 150.211C283.591 149.252 283.725 148.118 283.815 146.808C283.904 145.504 283.949 143.978 283.949 142.23Z" fill="#5789FF"/>
<path d="M310.898 141.26C310.898 141.111 310.898 140.796 310.898 140.311C310.898 139.832 310.881 139.28 310.854 138.661C310.82 138.043 310.77 137.383 310.697 136.681C310.619 135.98 310.496 135.331 310.317 134.722C309.942 134.284 309.522 133.892 309.064 133.546C308.616 133.191 308.034 133.01 307.318 133.01C306.11 133.01 305.221 133.742 304.656 135.196C304.085 136.656 303.805 138.919 303.805 141.982C303.805 143.318 303.873 144.55 304.007 145.674C304.141 146.788 304.342 147.747 304.611 148.541C304.879 149.34 305.221 149.964 305.64 150.418C306.071 150.861 306.585 151.078 307.184 151.078C309.656 151.078 310.898 147.809 310.898 141.26ZM310.63 131.835C310.328 130.406 309.914 129.071 309.377 127.833C308.851 126.596 308.219 125.534 307.475 124.636C306.742 123.729 305.909 123.023 304.969 122.512C304.04 121.991 303.033 121.728 301.948 121.728C301.322 121.728 300.751 121.806 300.248 121.955C299.756 122.094 299.319 122.259 298.95 122.45C298.575 122.646 298.262 122.832 298.01 123.007C297.77 123.188 297.596 123.316 297.496 123.399L296.892 122.656C297.261 122.203 297.719 121.785 298.256 121.398C298.793 121.017 299.375 120.692 300.002 120.429C300.639 120.156 301.311 119.944 302.015 119.79C302.731 119.625 303.436 119.542 304.141 119.542C306.434 119.542 308.448 120.006 310.182 120.924C311.911 121.847 313.36 123.151 314.523 124.843C315.687 126.524 316.565 128.555 317.163 130.948C317.756 133.34 318.058 135.996 318.058 138.909C318.058 141.26 317.795 143.333 317.275 145.117C316.749 146.906 316.005 148.407 315.038 149.613C314.081 150.825 312.918 151.738 311.547 152.356C310.171 152.96 308.622 153.264 306.893 153.264C305.696 153.264 304.482 153.063 303.246 152.666C302.021 152.269 300.908 151.629 299.912 150.748C298.911 149.856 298.089 148.696 297.451 147.262C296.808 145.818 296.489 144.06 296.489 141.982C296.489 140.183 296.763 138.579 297.317 137.176C297.865 135.774 298.603 134.593 299.532 133.629C300.472 132.654 301.551 131.912 302.776 131.401C303.996 130.896 305.293 130.638 306.669 130.638C307.19 130.638 307.659 130.68 308.079 130.762C308.493 130.845 308.862 130.948 309.175 131.071C309.489 131.185 309.757 131.309 309.981 131.443C310.216 131.566 310.434 131.701 310.63 131.835Z" fill="#5789FF"/>
<path d="M332.009 135.176C332.591 134.351 333.217 133.603 333.888 132.928C334.168 132.639 334.47 132.36 334.783 132.082C335.108 131.809 335.443 131.566 335.79 131.36C336.148 131.144 336.512 130.968 336.887 130.845C337.256 130.71 337.631 130.638 338.005 130.638C338.794 130.638 339.415 130.86 339.862 131.298C340.31 131.742 340.534 132.35 340.534 133.134C340.534 133.619 340.489 134.083 340.399 134.536C340.321 134.99 340.159 135.542 339.907 136.186H339.258C339.169 135.748 338.951 135.382 338.609 135.093C338.263 134.794 337.77 134.64 337.133 134.64C336.64 134.64 336.159 134.722 335.701 134.887C335.236 135.052 334.783 135.258 334.336 135.506C333.899 135.743 333.486 136.001 333.083 136.29C332.691 136.578 332.333 136.846 332.009 137.094V151.016C332.009 151.212 331.97 151.439 331.897 151.696C331.835 151.944 331.684 152.186 331.449 152.418C331.209 152.655 330.851 152.851 330.375 153.016C329.911 153.181 329.268 153.264 328.451 153.264C327.629 153.264 326.98 153.171 326.505 152.996C326.023 152.82 325.66 152.604 325.408 152.356C325.168 152.109 325.011 151.861 324.938 151.614C324.877 151.356 324.849 151.14 324.849 150.975V134.413C324.849 134 324.743 133.644 324.536 133.34C324.323 133.041 323.976 132.886 323.484 132.886C323.215 132.886 322.98 132.928 322.79 133.01C322.611 133.093 322.416 133.216 322.209 133.381L321.716 132.845C322.074 132.572 322.466 132.304 322.902 132.041C323.35 131.768 323.825 131.535 324.334 131.34C324.854 131.133 325.408 130.968 325.99 130.845C326.583 130.71 327.209 130.638 327.869 130.638C328.524 130.638 329.089 130.721 329.57 130.886C330.045 131.051 330.431 131.273 330.733 131.546C331.03 131.809 331.259 132.103 331.427 132.433C331.606 132.763 331.74 133.103 331.83 133.443C331.919 133.773 331.97 134.093 331.986 134.392C331.998 134.696 332.009 134.959 332.009 135.176Z" fill="#5789FF"/>
<path d="M364.139 134.021C364.139 136.635 363.859 139.167 363.311 141.611C362.757 144.045 361.996 146.334 361.028 148.479C360.055 150.614 358.903 152.558 357.56 154.316C356.229 156.09 354.786 157.6 353.22 158.853C351.653 160.117 349.998 161.101 348.252 161.803C346.507 162.504 344.739 162.855 342.949 162.855C341.596 162.855 340.544 162.638 339.795 162.215C339.051 161.787 338.676 161.215 338.676 160.503C338.676 160.225 338.732 159.957 338.832 159.699C338.922 159.451 339.045 159.225 339.19 159.018C339.341 158.822 339.526 158.668 339.75 158.544C339.974 158.42 340.208 158.358 340.443 158.358C340.745 158.358 340.992 158.492 341.182 158.771C341.378 159.044 341.585 159.338 341.808 159.658C342.021 159.972 342.278 160.266 342.591 160.545C342.905 160.818 343.33 160.957 343.867 160.957C344.566 160.957 345.299 160.844 346.06 160.627C346.82 160.405 347.581 160.08 348.342 159.658C349.114 159.245 349.886 158.74 350.646 158.152C351.418 157.559 352.179 156.899 352.929 156.172C352.481 154.728 351.972 153.15 351.407 151.449C350.853 149.732 350.255 148.015 349.617 146.293C348.991 144.56 348.347 142.89 347.693 141.281C347.033 139.672 346.395 138.249 345.769 137.011C345.142 135.764 344.538 134.763 343.956 134.021C343.375 133.268 342.86 132.886 342.412 132.886C342.116 132.886 341.887 132.928 341.719 133.01C341.557 133.093 341.361 133.216 341.137 133.381L340.69 132.845C340.992 132.598 341.31 132.345 341.652 132.082C341.998 131.824 342.401 131.587 342.86 131.381C343.335 131.164 343.878 130.984 344.493 130.845C345.12 130.71 345.864 130.638 346.731 130.638C347.671 130.638 348.549 130.839 349.371 131.236C350.188 131.639 350.926 132.366 351.586 133.423C352.078 134.206 352.576 135.15 353.085 136.248C353.606 137.352 354.126 138.579 354.652 139.94C355.189 141.301 355.726 142.776 356.263 144.354C356.8 145.921 357.337 147.571 357.874 149.304C358.841 147.448 359.619 145.483 360.201 143.405C360.793 141.317 361.096 139.172 361.096 136.97C361.096 136.186 361.034 135.521 360.917 134.97C360.81 134.408 360.682 133.933 360.536 133.546C360.402 133.149 360.279 132.814 360.178 132.536C360.072 132.247 360.022 132 360.022 131.793C360.022 131.577 360.111 131.391 360.29 131.236C360.48 131.087 360.704 130.968 360.961 130.886C361.23 130.803 361.498 130.741 361.767 130.7C362.046 130.659 362.281 130.638 362.46 130.638C362.874 130.638 363.199 130.721 363.423 130.886C363.646 131.04 363.809 131.267 363.915 131.566C364.032 131.855 364.099 132.206 364.116 132.618C364.127 133.031 364.139 133.5 364.139 134.021Z" fill="#5789FF"/>
<path d="M398.97 139.693H395.614V152.295C395.614 154.233 395.256 155.925 394.54 157.368C393.824 158.822 392.822 160.034 391.542 160.998C390.272 161.973 388.756 162.7 386.999 163.185C385.254 163.664 383.341 163.906 381.271 163.906C380.477 163.906 379.716 163.845 378.989 163.721C378.273 163.597 377.63 163.422 377.065 163.205C376.511 162.999 376.064 162.741 375.722 162.442C375.392 162.153 375.23 161.828 375.23 161.473C375.23 161.21 375.264 160.947 375.342 160.689C375.415 160.426 375.527 160.184 375.678 159.967C375.84 159.761 376.036 159.585 376.259 159.451C376.483 159.312 376.735 159.245 377.02 159.245C377.21 159.245 377.367 159.317 377.49 159.472C377.607 159.637 377.736 159.828 377.87 160.05C378.016 160.282 378.184 160.534 378.363 160.813C378.553 161.101 378.788 161.354 379.056 161.576C379.336 161.808 379.683 161.999 380.086 162.153C380.488 162.318 380.992 162.401 381.607 162.401C382.798 162.401 383.85 162.195 384.762 161.782C385.685 161.38 386.451 160.818 387.066 160.091C387.676 159.374 388.141 158.513 388.454 157.513C388.778 156.507 388.946 155.393 388.946 154.171V152.872C388.286 152.996 387.631 153.089 386.977 153.161C386.317 153.228 385.573 153.264 384.74 153.264C382.636 153.264 380.656 152.965 378.81 152.377C376.959 151.774 375.348 150.851 373.977 149.613C372.601 148.365 371.521 146.777 370.733 144.849C369.938 142.926 369.547 140.621 369.547 137.94C369.547 136.083 369.759 134.371 370.196 132.804C370.643 131.226 371.253 129.803 372.031 128.535C372.802 127.271 373.72 126.163 374.783 125.214C375.84 124.255 376.987 123.45 378.228 122.801C379.481 122.156 380.802 121.666 382.189 121.336C383.587 121.006 384.997 120.841 386.418 120.841C387.771 120.841 389.036 120.96 390.199 121.192C391.363 121.429 392.369 121.77 393.22 122.223C394.081 122.677 394.764 123.244 395.256 123.915C395.759 124.575 396.017 125.327 396.017 126.163C396.017 126.549 395.938 126.957 395.793 127.38C395.642 127.808 395.424 128.194 395.144 128.535C394.875 128.88 394.523 129.169 394.092 129.401C393.656 129.623 393.164 129.731 392.616 129.731C391.944 129.731 391.452 129.561 391.139 129.215C390.826 128.859 390.585 128.426 390.423 127.916C390.255 127.395 390.132 126.823 390.042 126.204C389.964 125.585 389.83 125.023 389.64 124.513C389.461 124.007 389.175 123.579 388.789 123.234C388.415 122.878 387.872 122.698 387.156 122.698C386.602 122.698 385.981 122.821 385.299 123.069C384.628 123.306 383.94 123.683 383.24 124.203C382.536 124.729 381.853 125.394 381.182 126.204C380.511 127.003 379.912 127.973 379.392 129.112C378.866 130.241 378.441 131.541 378.116 133.01C377.803 134.469 377.647 136.114 377.647 137.94C377.647 139.976 377.786 141.714 378.072 143.158C378.351 144.591 378.721 145.787 379.168 146.746C379.627 147.711 380.158 148.474 380.757 149.036C381.35 149.603 381.965 150.026 382.592 150.315C383.229 150.603 383.867 150.789 384.493 150.871C385.131 150.944 385.713 150.975 386.239 150.975C386.776 150.975 387.268 150.944 387.715 150.871C388.174 150.789 388.588 150.681 388.946 150.541V139.693H384.851V137.795H398.97V139.693Z" fill="#5789FF"/>
<path d="M402.928 141.92C402.928 140.054 403.219 138.414 403.801 137.011C404.394 135.599 405.188 134.423 406.173 133.485C407.168 132.536 408.321 131.829 409.618 131.36C410.916 130.881 412.281 130.638 413.713 130.638C415.145 130.638 416.51 130.86 417.808 131.298C419.105 131.742 420.246 132.412 421.231 133.32C422.215 134.217 423.004 135.356 423.603 136.743C424.196 138.12 424.498 139.749 424.498 141.631C424.498 143.503 424.196 145.158 423.603 146.602C423.004 148.046 422.215 149.263 421.231 150.253C420.246 151.243 419.105 151.995 417.808 152.501C416.51 153.006 415.145 153.264 413.713 153.264C412.281 153.264 410.916 153.022 409.618 152.542C408.321 152.063 407.168 151.356 406.173 150.418C405.188 149.469 404.394 148.288 403.801 146.87C403.219 145.457 402.928 143.807 402.928 141.92ZM417.248 141.714C417.248 140.574 417.203 139.476 417.114 138.414C417.036 137.341 416.873 136.393 416.622 135.568C416.364 134.732 416.006 134.072 415.548 133.588C415.083 133.093 414.474 132.845 413.713 132.845C412.952 132.845 412.337 133.108 411.878 133.629C411.414 134.139 411.056 134.82 410.804 135.671C410.547 136.527 410.385 137.496 410.312 138.579C410.234 139.667 410.2 140.781 410.2 141.92C410.2 143.075 410.234 144.204 410.312 145.303C410.385 146.391 410.547 147.365 410.804 148.231C411.056 149.087 411.414 149.773 411.878 150.294C412.337 150.82 412.952 151.078 413.713 151.078C414.474 151.078 415.083 150.81 415.548 150.273C416.006 149.727 416.364 149.01 416.622 148.128C416.873 147.236 417.036 146.231 417.114 145.117C417.203 143.993 417.248 142.859 417.248 141.714Z" fill="#5789FF"/>
<path d="M191.031 175.578C190.924 175.578 190.874 175.532 190.874 175.434V169.453C190.874 169.36 190.924 169.308 191.031 169.308H192.06C192.177 169.308 192.239 169.36 192.239 169.453V174.444C192.239 174.475 192.25 174.485 192.284 174.485H195.416C195.534 174.485 195.595 174.542 195.595 174.65V175.434C195.595 175.532 195.534 175.578 195.416 175.578H191.031Z" fill="#5789FF"/>
<path d="M208.597 175.578C208.508 175.578 208.446 175.537 208.418 175.455L208.15 174.609C208.133 174.583 208.111 174.568 208.083 174.568H205.711C205.666 174.568 205.644 174.583 205.644 174.609L205.375 175.455C205.342 175.537 205.286 175.578 205.196 175.578H204.055C203.994 175.578 203.949 175.568 203.921 175.537C203.904 175.496 203.904 175.455 203.921 175.413L206.002 169.432C206.03 169.35 206.091 169.308 206.181 169.308H207.613C207.702 169.308 207.758 169.35 207.792 169.432L209.873 175.413C209.873 175.429 209.873 175.444 209.873 175.455C209.873 175.496 209.856 175.532 209.828 175.558C209.811 175.573 209.783 175.578 209.738 175.578H208.597ZM205.979 173.537C205.979 173.578 205.99 173.598 206.024 173.598H207.747C207.792 173.598 207.814 173.578 207.814 173.537L206.919 170.793C206.919 170.768 206.908 170.752 206.897 170.752C206.88 170.752 206.863 170.768 206.852 170.793L205.979 173.537Z" fill="#5789FF"/>
<path d="M221.019 175.64C220.527 175.64 220.085 175.553 219.699 175.372C219.324 175.197 219.028 174.949 218.804 174.63C218.591 174.3 218.491 173.923 218.491 173.495V169.453C218.491 169.36 218.547 169.308 218.67 169.308H219.699C219.816 169.308 219.878 169.36 219.878 169.453V173.516C219.878 173.836 219.979 174.088 220.191 174.279C220.398 174.475 220.672 174.568 221.019 174.568C221.36 174.568 221.634 174.475 221.847 174.279C222.054 174.088 222.16 173.836 222.16 173.516V169.453C222.16 169.36 222.216 169.308 222.339 169.308H223.368C223.486 169.308 223.547 169.36 223.547 169.453V173.495C223.547 173.923 223.436 174.3 223.212 174.63C222.999 174.949 222.708 175.197 222.339 175.372C221.964 175.553 221.523 175.64 221.019 175.64Z" fill="#5789FF"/>
<path d="M232.63 175.578C232.523 175.578 232.473 175.532 232.473 175.434V169.453C232.473 169.36 232.523 169.308 232.63 169.308H233.637C233.709 169.308 233.771 169.339 233.816 169.391L236.255 173.124C236.266 173.155 236.282 173.165 236.299 173.165C236.31 173.155 236.322 173.134 236.322 173.103V169.453C236.322 169.36 236.378 169.308 236.501 169.308H237.508C237.625 169.308 237.687 169.36 237.687 169.453V175.434C237.687 175.532 237.625 175.578 237.508 175.578H236.523C236.445 175.578 236.378 175.547 236.322 175.475L233.883 171.701C233.866 171.675 233.849 171.67 233.838 171.68C233.821 171.68 233.816 171.696 233.816 171.722V175.434C233.816 175.532 233.76 175.578 233.659 175.578H232.63Z" fill="#5789FF"/>
<path d="M246.827 175.578C246.721 175.578 246.67 175.532 246.67 175.434V169.453C246.67 169.36 246.721 169.308 246.827 169.308H249.221C249.697 169.308 250.116 169.391 250.474 169.556C250.843 169.711 251.129 169.927 251.324 170.216C251.531 170.494 251.638 170.824 251.638 171.206V173.681C251.638 174.052 251.531 174.382 251.324 174.671C251.129 174.96 250.843 175.187 250.474 175.352C250.116 175.506 249.697 175.578 249.221 175.578H246.827ZM248.035 174.444C248.035 174.475 248.046 174.485 248.08 174.485H249.266C249.562 174.485 249.803 174.398 249.982 174.217C250.161 174.026 250.256 173.779 250.273 173.475V171.412C250.273 171.098 250.172 170.85 249.982 170.67C249.803 170.479 249.557 170.381 249.244 170.381H248.08C248.046 170.381 248.035 170.402 248.035 170.443V174.444Z" fill="#5789FF"/>
<path d="M264.238 175.578C264.159 175.578 264.103 175.537 264.059 175.455L262.85 173.021C262.833 172.995 262.811 172.98 262.783 172.98H261.888C261.855 172.98 261.843 172.995 261.843 173.021V175.434C261.843 175.532 261.782 175.578 261.664 175.578H260.635C260.529 175.578 260.479 175.532 260.479 175.434V169.432C260.479 169.339 260.529 169.288 260.635 169.288H263.365C263.779 169.288 264.148 169.37 264.461 169.535C264.775 169.69 265.009 169.907 265.177 170.195C265.356 170.484 265.446 170.814 265.446 171.185C265.446 171.587 265.334 171.938 265.11 172.237C264.898 172.526 264.601 172.732 264.215 172.856C264.182 172.856 264.159 172.866 264.148 172.877C264.148 172.892 264.154 172.907 264.17 172.918L265.468 175.393C265.479 175.424 265.491 175.449 265.491 175.475C265.491 175.506 265.474 175.532 265.446 175.558C265.429 175.573 265.39 175.578 265.334 175.578H264.238ZM261.888 170.381C261.855 170.381 261.843 170.402 261.843 170.443V171.948C261.843 171.979 261.855 171.99 261.888 171.99H263.164C263.432 171.99 263.645 171.923 263.812 171.783C263.991 171.634 264.081 171.443 264.081 171.206C264.081 170.958 263.991 170.762 263.812 170.608C263.645 170.458 263.432 170.381 263.164 170.381H261.888Z" fill="#5789FF"/>
<path d="M276.127 175.578C276.021 175.578 275.971 175.527 275.971 175.413V173.207L275.948 173.124L273.979 169.473C273.946 169.448 273.935 169.422 273.935 169.391C273.935 169.365 273.946 169.344 273.979 169.329C274.007 169.319 274.046 169.308 274.091 169.308H275.21C275.311 169.308 275.378 169.344 275.411 169.412L276.597 171.742C276.608 171.773 276.625 171.783 276.642 171.783C276.653 171.783 276.67 171.773 276.687 171.742L277.873 169.412C277.917 169.344 277.973 169.308 278.052 169.308H279.193C279.293 169.308 279.349 169.344 279.349 169.412C279.349 169.442 279.338 169.463 279.327 169.473L277.336 173.124L277.313 173.207V175.413C277.313 175.527 277.257 175.578 277.157 175.578H276.127Z" fill="#5789FF"/>
<path d="M300.088 175.64C299.579 175.64 299.131 175.568 298.745 175.413C298.354 175.264 298.057 175.052 297.85 174.774C297.655 174.485 297.56 174.155 297.56 173.784V173.619C297.56 173.526 297.61 173.475 297.716 173.475H298.745C298.846 173.475 298.902 173.511 298.902 173.578V173.722C298.902 173.959 299.02 174.155 299.26 174.32C299.495 174.485 299.803 174.568 300.177 174.568C300.519 174.568 300.77 174.501 300.938 174.362C301.117 174.227 301.207 174.062 301.207 173.867C301.207 173.717 301.151 173.593 301.05 173.495C300.944 173.402 300.804 173.32 300.625 173.248C300.446 173.165 300.161 173.062 299.775 172.938C299.338 172.804 298.975 172.665 298.678 172.526C298.376 172.376 298.125 172.175 297.918 171.928C297.705 171.68 297.604 171.371 297.604 171C297.604 170.644 297.699 170.334 297.895 170.072C298.102 169.798 298.387 169.592 298.745 169.453C299.103 169.303 299.512 169.226 299.976 169.226C300.468 169.226 300.905 169.308 301.296 169.473C301.682 169.638 301.979 169.865 302.191 170.154C302.415 170.443 302.527 170.783 302.527 171.165V171.247C302.527 171.345 302.471 171.392 302.37 171.392H301.341C301.235 171.392 301.184 171.366 301.184 171.309V171.227C301.184 170.969 301.072 170.752 300.849 170.587C300.625 170.412 300.317 170.319 299.931 170.319C299.618 170.319 299.372 170.381 299.193 170.505C299.025 170.618 298.947 170.773 298.947 170.979C298.947 171.134 298.992 171.263 299.081 171.371C299.182 171.469 299.333 171.557 299.529 171.639C299.736 171.722 300.049 171.835 300.468 171.969C300.916 172.124 301.274 172.258 301.542 172.382C301.811 172.495 302.046 172.67 302.258 172.918C302.465 173.155 302.572 173.454 302.572 173.825C302.572 174.197 302.465 174.521 302.258 174.795C302.063 175.073 301.777 175.284 301.408 175.434C301.033 175.573 300.591 175.64 300.088 175.64Z" fill="#5789FF"/>
<path d="M316.06 170.237C316.06 170.334 316.004 170.381 315.903 170.381H312.748C312.714 170.381 312.703 170.402 312.703 170.443V171.804C312.703 171.845 312.714 171.866 312.748 171.866H314.784C314.902 171.866 314.963 171.917 314.963 172.01V172.794C314.963 172.907 314.902 172.959 314.784 172.959H312.748C312.714 172.959 312.703 172.974 312.703 173V174.444C312.703 174.475 312.714 174.485 312.748 174.485H315.903C316.004 174.485 316.06 174.542 316.06 174.65V175.434C316.06 175.532 316.004 175.578 315.903 175.578H311.495C311.389 175.578 311.338 175.532 311.338 175.434V169.453C311.338 169.36 311.389 169.308 311.495 169.308H315.903C316.004 169.308 316.06 169.36 316.06 169.453V170.237Z" fill="#5789FF"/>
<path d="M328.574 175.578C328.496 175.578 328.44 175.537 328.395 175.455L327.187 173.021C327.17 172.995 327.148 172.98 327.12 172.98H326.225C326.191 172.98 326.18 172.995 326.18 173.021V175.434C326.18 175.532 326.118 175.578 326.001 175.578H324.972C324.865 175.578 324.815 175.532 324.815 175.434V169.432C324.815 169.339 324.865 169.288 324.972 169.288H327.701C328.115 169.288 328.484 169.37 328.798 169.535C329.111 169.69 329.346 169.907 329.514 170.195C329.693 170.484 329.782 170.814 329.782 171.185C329.782 171.587 329.67 171.938 329.447 172.237C329.234 172.526 328.938 172.732 328.552 172.856C328.518 172.856 328.496 172.866 328.484 172.877C328.484 172.892 328.49 172.907 328.507 172.918L329.805 175.393C329.816 175.424 329.827 175.449 329.827 175.475C329.827 175.506 329.81 175.532 329.782 175.558C329.765 175.573 329.726 175.578 329.67 175.578H328.574ZM326.225 170.381C326.191 170.381 326.18 170.402 326.18 170.443V171.948C326.18 171.979 326.191 171.99 326.225 171.99H327.5C327.768 171.99 327.981 171.923 328.149 171.783C328.328 171.634 328.417 171.443 328.417 171.206C328.417 170.958 328.328 170.762 328.149 170.608C327.981 170.458 327.768 170.381 327.5 170.381H326.225Z" fill="#5789FF"/>
<path d="M340.441 175.578C340.352 175.578 340.285 175.537 340.24 175.455L338.271 169.473C338.271 169.463 338.271 169.442 338.271 169.412C338.271 169.344 338.316 169.308 338.405 169.308H339.546C339.636 169.308 339.692 169.35 339.725 169.432L341.001 173.743C341.001 173.774 341.006 173.784 341.023 173.784C341.051 173.784 341.068 173.774 341.068 173.743L342.321 169.432C342.366 169.35 342.433 169.308 342.522 169.308H343.619C343.675 169.308 343.714 169.324 343.73 169.35C343.758 169.381 343.764 169.422 343.753 169.473L341.739 175.455C341.706 175.537 341.65 175.578 341.56 175.578H340.441Z" fill="#5789FF"/>
<path d="M352.588 175.578C352.481 175.578 352.431 175.532 352.431 175.434V169.453C352.431 169.36 352.481 169.308 352.588 169.308H353.617C353.734 169.308 353.796 169.36 353.796 169.453V175.434C353.796 175.532 353.734 175.578 353.617 175.578H352.588Z" fill="#5789FF"/>
<path d="M365.176 175.64C364.667 175.64 364.22 175.553 363.834 175.372C363.442 175.197 363.146 174.939 362.939 174.609C362.726 174.279 362.625 173.903 362.625 173.475V171.392C362.625 170.969 362.726 170.587 362.939 170.257C363.146 169.927 363.442 169.674 363.834 169.494C364.22 169.319 364.667 169.226 365.176 169.226C365.668 169.226 366.099 169.319 366.474 169.494C366.86 169.659 367.156 169.901 367.369 170.216C367.576 170.52 367.682 170.886 367.682 171.309C367.682 171.35 367.626 171.381 367.526 171.392L366.496 171.453H366.452C366.362 171.453 366.317 171.443 366.317 171.412V171.371C366.317 171.041 366.211 170.788 366.004 170.608C365.792 170.417 365.517 170.319 365.176 170.319C364.818 170.319 364.533 170.417 364.326 170.608C364.113 170.788 364.013 171.041 364.013 171.371V173.516C364.013 173.836 364.113 174.088 364.326 174.279C364.533 174.475 364.818 174.568 365.176 174.568C365.517 174.568 365.792 174.475 366.004 174.279C366.211 174.088 366.317 173.836 366.317 173.516C366.317 173.49 366.329 173.469 366.362 173.454C366.39 173.428 366.429 173.423 366.474 173.433L367.526 173.475C367.626 173.49 367.682 173.506 367.682 173.516V173.557C367.682 173.97 367.576 174.336 367.369 174.65C367.156 174.97 366.86 175.217 366.474 175.393C366.099 175.558 365.668 175.64 365.176 175.64Z" fill="#5789FF"/>
<path d="M381.214 170.237C381.214 170.334 381.158 170.381 381.057 170.381H377.902C377.869 170.381 377.858 170.402 377.858 170.443V171.804C377.858 171.845 377.869 171.866 377.902 171.866H379.938C380.056 171.866 380.117 171.917 380.117 172.01V172.794C380.117 172.907 380.056 172.959 379.938 172.959H377.902C377.869 172.959 377.858 172.974 377.858 173V174.444C377.858 174.475 377.869 174.485 377.902 174.485H381.057C381.158 174.485 381.214 174.542 381.214 174.65V175.434C381.214 175.532 381.158 175.578 381.057 175.578H376.649C376.543 175.578 376.493 175.532 376.493 175.434V169.453C376.493 169.36 376.543 169.308 376.649 169.308H381.057C381.158 169.308 381.214 169.36 381.214 169.453V170.237Z" fill="#5789FF"/>
</svg>
